<svg xmlns="http://www.w3.org/2000/svg" viewBox="0 0 960 540" width="100%" height="100%">
  <defs>
    <linearGradient id="scene-room" x1="0%" y1="0%" x2="0%" y2="100%">
      <stop offset="0%" stop-color="#e2f3f1" />
      <stop offset="100%" stop-color="#f8fafc" />
    </linearGradient>
    <linearGradient id="scene-window" x1="0%" y1="0%" x2="0%" y2="100%">
      <stop offset="0%" stop-color="#ffffff" stop-opacity="0.95" />
      <stop offset="100%" stop-color="#cfe9e6" stop-opacity="0.5" />
    </linearGradient>
  </defs>

  <rect width="960" height="540" fill="url(#scene-room)" />
  <rect x="60" y="70" width="250" height="180" rx="10" fill="url(#scene-window)" />
  <rect x="0" y="400" width="960" height="140" fill="#e7eef0" />
  <rect x="330" y="330" width="300" height="24" rx="8" fill="#cbd5e1" />
  <rect x="360" y="354" width="18" height="60" fill="#cbd5e1" />
  <rect x="582" y="354" width="18" height="60" fill="#cbd5e1" />

  <g opacity="0.85">
    <circle cx="300" cy="290" r="34" fill="#94a3b8" />
    <path d="M246 400 C246 344 272 326 300 326 C328 326 354 344 354 400 Z" fill="#e2e8f0" />
  </g>
  <g opacity="0.85">
    <circle cx="662" cy="286" r="34" fill="#7f9c98" />
    <path d="M608 400 C608 344 634 326 662 326 C690 326 716 344 716 400 Z" fill="#0f766e" opacity="0.75" />
  </g>
</svg>